<svg width="174" height="27" viewBox="0 0 174 27" fill="none" xmlns="http://www.w3.org/2000/svg">
<g clip-path="url(#clip0_1_2260)">
<g clip-path="url(#clip1_1_2260)">
<path d="M46.0269 23.5V5.62H49.1469L55.8429 14.716H54.3549L60.9069 5.62H64.0269V23.5H60.7389V9.34L62.0109 9.652L55.2189 18.7H54.8349L48.2109 9.652L49.2909 9.34V23.5H46.0269ZM73.5687 23.788C72.2887 23.788 71.1207 23.492 70.0647 22.9C69.0247 22.308 68.1927 21.5 67.5687 20.476C66.9607 19.452 66.6567 18.284 66.6567 16.972C66.6567 15.66 66.9607 14.492 67.5687 13.468C68.1927 12.444 69.0247 11.636 70.0647 11.044C71.1047 10.452 72.2727 10.156 73.5687 10.156C74.8487 10.156 76.0087 10.452 77.0487 11.044C78.0887 11.636 78.9127 12.444 79.5207 13.468C80.1447 14.476 80.4567 15.644 80.4567 16.972C80.4567 18.284 80.1447 19.452 79.5207 20.476C78.8967 21.5 78.0647 22.308 77.0247 22.9C75.9847 23.492 74.8327 23.788 73.5687 23.788ZM73.5687 20.908C74.2727 20.908 74.8887 20.74 75.4167 20.404C75.9607 20.068 76.3847 19.604 76.6887 19.012C77.0087 18.404 77.1687 17.724 77.1687 16.972C77.1687 16.204 77.0087 15.532 76.6887 14.956C76.3847 14.364 75.9607 13.9 75.4167 13.564C74.8887 13.212 74.2727 13.036 73.5687 13.036C72.8487 13.036 72.2167 13.212 71.6727 13.564C71.1287 13.9 70.6967 14.364 70.3767 14.956C70.0727 15.532 69.9207 16.204 69.9207 16.972C69.9207 17.724 70.0727 18.404 70.3767 19.012C70.6967 19.604 71.1287 20.068 71.6727 20.404C72.2167 20.74 72.8487 20.908 73.5687 20.908ZM88.913 23.788C87.649 23.788 86.521 23.492 85.529 22.9C84.537 22.292 83.753 21.468 83.177 20.428C82.601 19.388 82.313 18.236 82.313 16.972C82.313 15.692 82.601 14.54 83.177 13.516C83.753 12.492 84.537 11.676 85.529 11.068C86.537 10.46 87.657 10.156 88.889 10.156C89.881 10.156 90.761 10.356 91.529 10.756C92.313 11.14 92.929 11.684 93.377 12.388L92.897 13.036V5.332H96.041V23.5H93.065V20.98L93.401 21.604C92.953 22.308 92.329 22.852 91.529 23.236C90.729 23.604 89.857 23.788 88.913 23.788ZM89.249 20.908C89.969 20.908 90.601 20.74 91.145 20.404C91.689 20.068 92.113 19.604 92.417 19.012C92.737 18.42 92.897 17.74 92.897 16.972C92.897 16.22 92.737 15.548 92.417 14.956C92.113 14.348 91.689 13.876 91.145 13.54C90.601 13.204 89.969 13.036 89.249 13.036C88.545 13.036 87.913 13.212 87.353 13.564C86.793 13.9 86.353 14.364 86.033 14.956C85.729 15.532 85.577 16.204 85.577 16.972C85.577 17.74 85.729 18.42 86.033 19.012C86.353 19.604 86.793 20.068 87.353 20.404C87.913 20.74 88.545 20.908 89.249 20.908ZM105.158 23.788C103.814 23.788 102.638 23.484 101.63 22.876C100.622 22.268 99.838 21.444 99.278 20.404C98.718 19.364 98.438 18.212 98.438 16.948C98.438 15.636 98.718 14.476 99.278 13.468C99.854 12.444 100.63 11.636 101.606 11.044C102.598 10.452 103.702 10.156 104.918 10.156C105.942 10.156 106.838 10.324 107.606 10.66C108.39 10.996 109.054 11.46 109.598 12.052C110.142 12.644 110.558 13.324 110.846 14.092C111.134 14.844 111.278 15.66 111.278 16.54C111.278 16.764 111.262 16.996 111.23 17.236C111.214 17.476 111.174 17.684 111.11 17.86H101.03V15.46H109.334L107.846 16.588C107.99 15.852 107.95 15.196 107.726 14.62C107.518 14.044 107.166 13.588 106.67 13.252C106.19 12.916 105.606 12.748 104.918 12.748C104.262 12.748 103.678 12.916 103.166 13.252C102.654 13.572 102.262 14.052 101.99 14.692C101.734 15.316 101.638 16.076 101.702 16.972C101.638 17.772 101.742 18.484 102.014 19.108C102.302 19.716 102.718 20.188 103.262 20.524C103.822 20.86 104.462 21.028 105.182 21.028C105.902 21.028 106.51 20.876 107.006 20.572C107.518 20.268 107.918 19.86 108.206 19.348L110.75 20.596C110.494 21.22 110.094 21.772 109.55 22.252C109.006 22.732 108.358 23.108 107.606 23.38C106.87 23.652 106.054 23.788 105.158 23.788ZM113.661 23.5V10.444H116.613V13.348L116.373 12.916C116.677 11.94 117.149 11.26 117.789 10.876C118.445 10.492 119.229 10.3 120.141 10.3H120.909V13.084H119.781C118.885 13.084 118.165 13.364 117.621 13.924C117.077 14.468 116.805 15.236 116.805 16.228V23.5H113.661ZM122.638 23.5V10.444H125.59V13.012L125.35 12.556C125.654 11.772 126.15 11.18 126.838 10.78C127.542 10.364 128.358 10.156 129.286 10.156C130.246 10.156 131.094 10.364 131.83 10.78C132.582 11.196 133.166 11.78 133.582 12.532C133.998 13.268 134.206 14.124 134.206 15.1V23.5H131.062V15.844C131.062 15.268 130.95 14.772 130.726 14.356C130.502 13.94 130.19 13.62 129.79 13.396C129.406 13.156 128.95 13.036 128.422 13.036C127.91 13.036 127.454 13.156 127.054 13.396C126.654 13.62 126.342 13.94 126.118 14.356C125.894 14.772 125.782 15.268 125.782 15.844V23.5H122.638ZM136.864 23.5V10.444H140.008V23.5H136.864ZM136.864 8.98V5.62H140.008V8.98H136.864ZM141.783 23.5V20.956L149.367 12.172L149.847 13.252H142.119V10.444H152.631V13.012L145.191 21.796L144.711 20.716H152.679V23.5H141.783ZM160.658 23.788C159.314 23.788 158.138 23.484 157.13 22.876C156.122 22.268 155.338 21.444 154.778 20.404C154.218 19.364 153.938 18.212 153.938 16.948C153.938 15.636 154.218 14.476 154.778 13.468C155.354 12.444 156.13 11.636 157.106 11.044C158.098 10.452 159.202 10.156 160.418 10.156C161.442 10.156 162.338 10.324 163.106 10.66C163.89 10.996 164.554 11.46 165.098 12.052C165.642 12.644 166.058 13.324 166.346 14.092C166.634 14.844 166.778 15.66 166.778 16.54C166.778 16.764 166.762 16.996 166.73 17.236C166.714 17.476 166.674 17.684 166.61 17.86H156.53V15.46H164.834L163.346 16.588C163.49 15.852 163.45 15.196 163.226 14.62C163.018 14.044 162.666 13.588 162.17 13.252C161.69 12.916 161.106 12.748 160.418 12.748C159.762 12.748 159.178 12.916 158.666 13.252C158.154 13.572 157.762 14.052 157.49 14.692C157.234 15.316 157.138 16.076 157.202 16.972C157.138 17.772 157.242 18.484 157.514 19.108C157.802 19.716 158.218 20.188 158.762 20.524C159.322 20.86 159.962 21.028 160.682 21.028C161.402 21.028 162.01 20.876 162.506 20.572C163.018 20.268 163.418 19.86 163.706 19.348L166.25 20.596C165.994 21.22 165.594 21.772 165.05 22.252C164.506 22.732 163.858 23.108 163.106 23.38C162.37 23.652 161.554 23.788 160.658 23.788Z" fill="#11142D"/>
<path d="M20.1369 26.5C22.8983 26.5 25.1842 24.2425 24.6732 21.5288C24.3528 19.8274 23.8679 18.1594 23.2235 16.5502C21.9602 13.3958 20.1087 10.5295 17.7745 8.11522C15.4403 5.7009 12.6692 3.78575 9.61949 2.47913C8.11383 1.83406 6.55481 1.34354 4.96489 1.01219C2.26154 0.448817 0 2.73858 0 5.5V21.5C0 24.2614 2.23858 26.5 5 26.5H20.1369Z" fill="#615DFF"/>
<g style="mix-blend-mode:multiply">
<path d="M13.7013 26.5C10.9399 26.5 8.65399 24.2425 9.16506 21.5288C9.48548 19.8274 9.97035 18.1594 10.6147 16.5502C11.878 13.3958 13.7295 10.5295 16.0637 8.11522C18.3979 5.7009 21.169 3.78575 24.2187 2.47913C25.7244 1.83406 27.2834 1.34354 28.8733 1.01219C31.5767 0.448817 33.8382 2.73858 33.8382 5.5V21.5C33.8382 24.2614 31.5996 26.5 28.8382 26.5H13.7013Z" fill="#3DD9EB"/>
</g>
</g>
</g>
<defs>
<clipPath id="clip0_1_2260">
<rect width="174" height="26" fill="white" transform="translate(0 0.5)"/>
</clipPath>
<clipPath id="clip1_1_2260">
<rect width="174" height="26" fill="white" transform="translate(0 0.5)"/>
</clipPath>
</defs>
</svg>
