<svg xmlns="http://www.w3.org/2000/svg" width="21" height="22" viewBox="0 0 21 22" fill="none">
  <path d="M2.59998 10.8899C2.59998 11.9142 2.80173 12.9285 3.19372 13.8748C3.5857 14.8212 4.16025 15.681 4.88454 16.4053C5.60884 17.1296 6.46871 17.7042 7.41504 18.0962C8.36138 18.4882 9.37567 18.6899 10.4 18.6899C11.4243 18.6899 12.4386 18.4882 13.3849 18.0962C14.3312 17.7042 15.1911 17.1296 15.9154 16.4053C16.6397 15.681 17.2143 14.8212 17.6062 13.8748C17.9982 12.9285 18.2 11.9142 18.2 10.8899C18.2 9.86559 17.9982 8.85131 17.6062 7.90497C17.2143 6.95863 16.6397 6.09877 15.9154 5.37447C15.1911 4.65017 14.3312 4.07563 13.3849 3.68364C12.4386 3.29166 11.4243 3.0899 10.4 3.0899C9.37567 3.0899 8.36138 3.29166 7.41504 3.68364C6.46871 4.07563 5.60884 4.65017 4.88454 5.37447C4.16025 6.09877 3.5857 6.95863 3.19372 7.90497C2.80173 8.85131 2.59998 9.86559 2.59998 10.8899Z" stroke="#5A6A85" stroke-width="1.29981" stroke-linecap="round" stroke-linejoin="round"/>
  <path d="M7.79999 8.28992H7.80865" stroke="#5A6A85" stroke-width="1.29981" stroke-linecap="round" stroke-linejoin="round"/>
  <path d="M13 8.28992H13.0087" stroke="#5A6A85" stroke-width="1.29981" stroke-linecap="round" stroke-linejoin="round"/>
  <path d="M6.93335 11.7566C6.93335 12.676 7.29859 13.5578 7.94871 14.2079C8.59884 14.858 9.4806 15.2233 10.4 15.2233C11.3194 15.2233 12.2012 14.858 12.8513 14.2079C13.5014 13.5578 13.8667 12.676 13.8667 11.7566H6.93335Z" stroke="#5A6A85" stroke-width="1.29981" stroke-linecap="round" stroke-linejoin="round"/>
</svg>