<svg xmlns="http://www.w3.org/2000/svg" width="21" height="22" viewBox="0 0 21 22" fill="none">
  <path d="M12.1333 7.73333V6C12.1333 5.54029 11.9507 5.09941 11.6256 4.77434C11.3006 4.44928 10.8597 4.26666 10.4 4.26666H4.33331C3.8736 4.26666 3.43272 4.44928 3.10766 4.77434C2.78259 5.09941 2.59998 5.54029 2.59998 6V16.4C2.59998 16.8597 2.78259 17.3006 3.10766 17.6256C3.43272 17.9507 3.8736 18.1333 4.33331 18.1333H10.4C10.8597 18.1333 11.3006 17.9507 11.6256 17.6256C11.9507 17.3006 12.1333 16.8597 12.1333 16.4V14.6667" stroke="#5A6A85" stroke-width="1.29981" stroke-linecap="round" stroke-linejoin="round"/>
  <path d="M17.3333 11.2H6.06665M6.06665 11.2L8.66665 8.59998M6.06665 11.2L8.66665 13.8" stroke="#5A6A85" stroke-width="1.29981" stroke-linecap="round" stroke-linejoin="round"/>
</svg>