<svg xmlns="http://www.w3.org/2000/svg" width="21" height="21" viewBox="0 0 21 21" fill="none">
  <path d="M6.93335 6.21667C6.93335 7.13608 7.29859 8.01784 7.94871 8.66797C8.59884 9.3181 9.4806 9.68333 10.4 9.68333C11.3194 9.68333 12.2012 9.3181 12.8513 8.66797C13.5014 8.01784 13.8667 7.13608 13.8667 6.21667C13.8667 5.29725 13.5014 4.41549 12.8513 3.76536C12.2012 3.11524 11.3194 2.75 10.4 2.75C9.4806 2.75 8.59884 3.11524 7.94871 3.76536C7.29859 4.41549 6.93335 5.29725 6.93335 6.21667Z" stroke="#5A6A85" stroke-width="1.29981" stroke-linecap="round" stroke-linejoin="round"/>
  <path d="M13.8666 16.6167H19.0659" stroke="#5A6A85" stroke-width="1.29981" stroke-linecap="round" stroke-linejoin="round"/>
  <path d="M16.4667 14.0167V19.2159" stroke="#5A6A85" stroke-width="1.29981" stroke-linecap="round" stroke-linejoin="round"/>
  <path d="M5.20001 18.35V16.6167C5.20001 15.6973 5.56525 14.8155 6.21538 14.1654C6.8655 13.5153 7.74726 13.15 8.66668 13.15H12.1333" stroke="#5A6A85" stroke-width="1.29981" stroke-linecap="round" stroke-linejoin="round"/>
</svg>