<svg xmlns="http://www.w3.org/2000/svg" width="21" height="22" viewBox="0 0 21 22" fill="none">
  <path d="M2.59998 11.2299C2.59998 12.2542 2.80173 13.2685 3.19372 14.2149C3.5857 15.1612 4.16025 16.0211 4.88454 16.7454C5.60884 17.4697 6.46871 18.0442 7.41504 18.4362C8.36138 18.8282 9.37567 19.0299 10.4 19.0299C11.4243 19.0299 12.4386 18.8282 13.3849 18.4362C14.3312 18.0442 15.1911 17.4697 15.9154 16.7454C16.6397 16.0211 17.2143 15.1612 17.6062 14.2149C17.9982 13.2685 18.2 12.2542 18.2 11.2299C18.2 10.2056 17.9982 9.19134 17.6062 8.245C17.2143 7.29866 16.6397 6.4388 15.9154 5.7145C15.1911 4.9902 14.3312 4.41566 13.3849 4.02367C12.4386 3.63168 11.4243 3.42993 10.4 3.42993C9.37567 3.42993 8.36138 3.63168 7.41504 4.02367C6.46871 4.41566 5.60884 4.9902 4.88454 5.7145C4.16025 6.4388 3.5857 7.29866 3.19372 8.245C2.80173 9.19134 2.59998 10.2056 2.59998 11.2299Z" stroke="#5A6A85" stroke-width="1.29981" stroke-linecap="round" stroke-linejoin="round"/>
  <path d="M3.12 13.83H12.2633" stroke="#5A6A85" stroke-width="1.29981" stroke-linecap="round" stroke-linejoin="round"/>
  <path d="M5.67755 5.10956L8.50288 13.8057" stroke="#5A6A85" stroke-width="1.29981" stroke-linecap="round" stroke-linejoin="round"/>
  <path d="M14.7611 4.84784L7.36407 10.222" stroke="#5A6A85" stroke-width="1.29981" stroke-linecap="round" stroke-linejoin="round"/>
  <path d="M17.8178 13.4053L10.4208 8.03107" stroke="#5A6A85" stroke-width="1.29981" stroke-linecap="round" stroke-linejoin="round"/>
  <path d="M10.6227 18.9572L13.4489 10.261" stroke="#5A6A85" stroke-width="1.29981" stroke-linecap="round" stroke-linejoin="round"/>
</svg>