<svg xmlns="http://www.w3.org/2000/svg" width="21" height="22" viewBox="0 0 21 22" fill="none">
  <path d="M6.93335 9.12667C6.93335 8.66697 7.11597 8.22609 7.44103 7.90102C7.76609 7.57596 8.20697 7.39334 8.66668 7.39334H15.6C16.0597 7.39334 16.5006 7.57596 16.8257 7.90102C17.1507 8.22609 17.3333 8.66697 17.3333 9.12667V16.06C17.3333 16.5197 17.1507 16.9606 16.8257 17.2857C16.5006 17.6107 16.0597 17.7933 15.6 17.7933H8.66668C8.20697 17.7933 7.76609 17.6107 7.44103 17.2857C7.11597 16.9606 6.93335 16.5197 6.93335 16.06V9.12667Z" stroke="#5A6A85" stroke-width="1.29981" stroke-linecap="round" stroke-linejoin="round"/>
  <path d="M13.8667 7.39336V5.66003C13.8667 5.20032 13.6841 4.75944 13.359 4.43438C13.0339 4.10932 12.593 3.9267 12.1333 3.9267H5.20001C4.7403 3.9267 4.29942 4.10932 3.97436 4.43438C3.64929 4.75944 3.46667 5.20032 3.46667 5.66003V12.5934C3.46667 13.0531 3.64929 13.494 3.97436 13.819C4.29942 14.1441 4.7403 14.3267 5.20001 14.3267H6.93334" stroke="#5A6A85" stroke-width="1.29981" stroke-linecap="round" stroke-linejoin="round"/>
</svg>